<?xml version="1.0" standalone="no"?><!DOCTYPE svg PUBLIC "-//W3C//DTD SVG 1.1//EN" "http://www.w3.org/Graphics/SVG/1.1/DTD/svg11.dtd"><svg t="1609922119204" class="icon" viewBox="0 0 1171 1024" version="1.1" xmlns="http://www.w3.org/2000/svg" p-id="1665" xmlns:xlink="http://www.w3.org/1999/xlink" width="228.7109375" height="200"><defs><style type="text/css"></style></defs><path d="M342.71428531 278.96428531q0-21.96428531-13.39285687-35.35714312t-35.35714313-13.39285688q-23.03571469 0-40.71428531 13.66071469t-17.67857156 35.08928531q0 20.89285687 17.67857156 34.55357158t40.71428531 13.66071467q21.96428531 0 35.35714313-13.125t13.39285687-35.08928531z m398.03571469 271.60714313q0-15-13.66071469-26.78571469t-35.08928531-11.78571469q-14.46428531 0-26.51785687 12.05357156t-12.05357157 26.51785688q0 15 12.05357157 27.05357156t26.51785687 12.05357156q21.42857156 0 35.08928531-11.78571468t13.66071469-27.32142844z m-126.42857156-271.60714313q0-21.96428531-13.125-35.35714312t-35.08928531-13.39285688q-23.03571469 0-40.71428532 13.66071469t-17.67857156 35.08928531q0 20.89285687 17.67857156 34.55357156t40.71428532 13.66071469q21.96428531 0 35.08928531-13.125t13.125-35.08928531z m340.17857156 271.60714313q0-15-13.92857156-26.78571469t-34.82142844-11.78571469q-14.46428531 0-26.51785687 12.05357156t-12.05357157 26.51785688q0 15 12.05357157 27.05357156t26.51785687 12.05357156q20.89285687 0 34.82142844-11.78571468t13.92857156-27.32142844z m-142.5-212.67857157q-16.60714313-2.14285689-37.5-2.14285687-90.53571469 0-166.60714311 41.25t-119.73214314 111.69642844-43.66071469 154.01785687q0 41.78571469 12.32142844 81.42857156-18.75 1.60714311-36.42857156 1.60714313-13.92857156 0-26.78571469-0.80357156t-29.46428531-3.48214313-23.83928532-3.75-29.19642843-5.625-26.78571469-5.625l-135.53571469 68.03571469 38.57142844-116.78571469q-155.35714313-108.75-155.35714313-262.5 0-90.53571469 52.23214313-166.60714312t141.42857156-119.73214313 194.73214313-43.66071469q94.28571469 0 178.125 35.35714313t140.35714312 97.76785687 73.125 139.55357157z m317.14285689 300.53571469q0 62.67857156-36.69642845 119.73214313t-99.375 103.66071469l29.46428531 96.96428531-106.60714313-58.39285688q-80.35714313 19.82142844-116.78571468 19.82142844-90.53571469 0-166.60714313-37.76785687t-119.73214312-102.58928532-43.66071469-141.42857156 43.66071469-141.42857156 119.73214312-102.58928531 166.60714313-37.76785688q86.25 0 162.32142844 37.76785688t121.87499999 102.85714312 45.80357157 141.16071469z" p-id="1666"></path></svg>